<svg width="1306" height="816" viewBox="0 0 1306 816" fill="none" xmlns="http://www.w3.org/2000/svg">
  <defs>
    <linearGradient id="bg" x1="0" y1="0" x2="1306" y2="816" gradientUnits="userSpaceOnUse">
      <stop stop-color="#0D1926"/>
      <stop offset="1" stop-color="#1A2838"/>
    </linearGradient>
    <linearGradient id="panelShell" x1="0" y1="0" x2="1" y2="1">
      <stop stop-color="#171D25"/>
      <stop offset="1" stop-color="#10151D"/>
    </linearGradient>
    <linearGradient id="steel" x1="0" y1="0" x2="1" y2="1">
      <stop stop-color="#8B8E94"/>
      <stop offset="0.12" stop-color="#666A70"/>
      <stop offset="0.48" stop-color="#50555B"/>
      <stop offset="1" stop-color="#2E333A"/>
    </linearGradient>
    <linearGradient id="steelSoft" x1="0" y1="0" x2="1" y2="1">
      <stop stop-color="#7D8188"/>
      <stop offset="0.52" stop-color="#585C63"/>
      <stop offset="1" stop-color="#383C43"/>
    </linearGradient>
    <linearGradient id="screenFrame" x1="0" y1="0" x2="1" y2="1">
      <stop stop-color="#171B20"/>
      <stop offset="1" stop-color="#0F1217"/>
    </linearGradient>
    <linearGradient id="lcd" x1="0" y1="0" x2="0" y2="1">
      <stop stop-color="#B4E2A8"/>
      <stop offset="0.55" stop-color="#A6D798"/>
      <stop offset="1" stop-color="#95CA89"/>
    </linearGradient>
    <linearGradient id="pillBlue" x1="0" y1="0" x2="1" y2="1">
      <stop stop-color="#3C4450"/>
      <stop offset="1" stop-color="#1B2129"/>
    </linearGradient>
    <linearGradient id="buttonGloss" x1="0" y1="0" x2="0" y2="1">
      <stop stop-color="#48505D"/>
      <stop offset="0.45" stop-color="#2D333C"/>
      <stop offset="1" stop-color="#1A1F26"/>
    </linearGradient>
    <linearGradient id="buttonBlue" x1="0" y1="0" x2="0" y2="1">
      <stop stop-color="#2E3E53"/>
      <stop offset="0.55" stop-color="#1C2C40"/>
      <stop offset="1" stop-color="#182536"/>
    </linearGradient>
    <linearGradient id="orange" x1="0" y1="0" x2="1" y2="1">
      <stop stop-color="#C76A2B"/>
      <stop offset="0.38" stop-color="#B85D24"/>
      <stop offset="1" stop-color="#6B3116"/>
    </linearGradient>
    <radialGradient id="orangeCore" cx="0" cy="0" r="1" gradientUnits="userSpaceOnUse" gradientTransform="translate(709 477) rotate(90) scale(62)">
      <stop stop-color="#F7B164"/>
      <stop offset="0.52" stop-color="#D77A34"/>
      <stop offset="1" stop-color="#843A17"/>
    </radialGradient>
    <radialGradient id="orangeGlow" cx="0" cy="0" r="1" gradientUnits="userSpaceOnUse" gradientTransform="translate(709 477) rotate(90) scale(88)">
      <stop stop-color="#FFB35F" stop-opacity="0.55"/>
      <stop offset="0.45" stop-color="#FF7A35" stop-opacity="0.4"/>
      <stop offset="1" stop-color="#FF7A35" stop-opacity="0"/>
    </radialGradient>
    <radialGradient id="knobOuter" cx="0" cy="0" r="1" gradientUnits="userSpaceOnUse" gradientTransform="translate(0.34 0.28) scale(0.92)">
      <stop stop-color="#D8DDE3"/>
      <stop offset="0.32" stop-color="#8F949B"/>
      <stop offset="0.72" stop-color="#50545A"/>
      <stop offset="1" stop-color="#191D22"/>
    </radialGradient>
    <radialGradient id="knobInner" cx="0" cy="0" r="1" gradientUnits="userSpaceOnUse" gradientTransform="translate(0.36 0.34) scale(0.86)">
      <stop stop-color="#F3F5F7"/>
      <stop offset="0.28" stop-color="#A9B0B8"/>
      <stop offset="0.72" stop-color="#585F66"/>
      <stop offset="1" stop-color="#23272C"/>
    </radialGradient>
    <linearGradient id="glass" x1="0" y1="0" x2="1" y2="1">
      <stop stop-color="#2D3239"/>
      <stop offset="1" stop-color="#15191F"/>
    </linearGradient>
    <filter id="shadow" x="-20%" y="-20%" width="160%" height="160%">
      <feDropShadow dx="0" dy="18" stdDeviation="18" flood-color="#000000" flood-opacity="0.45"/>
    </filter>
    <filter id="soft" x="-20%" y="-20%" width="140%" height="140%">
      <feDropShadow dx="0" dy="8" stdDeviation="8" flood-color="#000000" flood-opacity="0.32"/>
    </filter>
    <pattern id="grid" width="34" height="34" patternUnits="userSpaceOnUse">
      <path d="M34 0H0V34" stroke="#24405A" stroke-opacity="0.18"/>
    </pattern>
    <pattern id="lcdDots" width="6" height="6" patternUnits="userSpaceOnUse">
      <circle cx="1.5" cy="1.5" r="0.8" fill="#7EB57A" fill-opacity="0.3"/>
    </pattern>
  </defs>

  <rect width="1306" height="816" fill="url(#bg)"/>
  <rect width="1306" height="816" fill="url(#grid)"/>
  <path d="M0 553C106 486 238 479 365 547C484 610 625 629 807 548C952 483 1128 493 1306 560V816H0V553Z" fill="#0F2133" fill-opacity="0.6"/>
  <path d="M0 545C108 483 236 477 364 544C486 608 624 624 808 545C950 484 1126 494 1306 556" stroke="#2A4A67" stroke-opacity="0.34"/>
  <path d="M0 571C109 514 238 510 363 572C485 634 627 654 806 572C955 506 1134 514 1306 585" stroke="#355E82" stroke-opacity="0.2"/>
  <path d="M876 0H1306V152L1160 0H876Z" fill="#11304A" fill-opacity="0.25"/>

  <rect x="22" y="22" width="1262" height="724" rx="25" fill="url(#panelShell)" stroke="#2B445D" stroke-width="2"/>
  <line x1="22" y1="87" x2="1284" y2="87" stroke="#2D4258" stroke-width="2"/>

  <text x="52" y="63" fill="#E8ECEF" font-size="31" font-family="Arial, Helvetica, sans-serif">GMDSS Simulator</text>
  <text x="258" y="61" fill="#87919C" font-size="14" font-family="Arial, Helvetica, sans-serif">Live training mode / ROC practice</text>

  <rect x="900" y="37" width="95" height="31" rx="15.5" fill="#272C33" stroke="#4A515A" stroke-width="1.2"/>
  <circle cx="921" cy="52.5" r="8" fill="#57F04F"/>
  <circle cx="921" cy="52.5" r="16" fill="#57F04F" fill-opacity="0.15"/>
  <text x="934" y="58" fill="#E9EEF2" font-size="13" font-family="Arial, Helvetica, sans-serif">Online</text>

  <rect x="1004" y="37" width="95" height="31" rx="15.5" fill="#383F49" stroke="#5B616A" stroke-width="1.2"/>
  <text x="1038" y="58" fill="#E9EEF2" font-size="13" font-family="Arial, Helvetica, sans-serif">Ch 16</text>

  <rect x="1108" y="37" width="95" height="31" rx="15.5" fill="#242930" stroke="#4A515A" stroke-width="1.2"/>
  <text x="1132" y="58" fill="#E9EEF2" font-size="13" font-family="Arial, Helvetica, sans-serif">Hebrew UI</text>

  <rect x="37" y="103" width="88" height="626" rx="18" fill="url(#steel)" stroke="#181B20" stroke-width="1.5" filter="url(#shadow)"/>
  <rect x="51" y="119" width="58" height="60" rx="14" fill="url(#buttonGloss)" stroke="#0F1115" stroke-width="2" filter="url(#soft)"/>
  <text x="69" y="158" fill="#F0F3F6" font-size="24" font-family="Arial, Helvetica, sans-serif">G</text>

  <rect x="49" y="198" width="62" height="60" rx="14" fill="url(#buttonGloss)" stroke="#0F1115" stroke-width="2" filter="url(#soft)"/>
  <text x="62" y="231" fill="#E9EDF1" font-size="16" font-family="Arial, Helvetica, sans-serif">Learn</text>
  <text x="67" y="249" fill="#9AA4AE" font-size="12" font-family="Arial, Helvetica, sans-serif">12/18</text>

  <rect x="49" y="270" width="62" height="60" rx="14" fill="url(#buttonGloss)" stroke="#0F1115" stroke-width="2" filter="url(#soft)"/>
  <text x="63" y="303" fill="#E9EDF1" font-size="16" font-family="Arial, Helvetica, sans-serif">Drill</text>
  <text x="67" y="321" fill="#9AA4AE" font-size="12" font-family="Arial, Helvetica, sans-serif">08/10</text>

  <rect x="48" y="341" width="63" height="72" rx="16" fill="url(#buttonGloss)" stroke="#0F1115" stroke-width="2" filter="url(#soft)"/>
  <rect x="51" y="344" width="57" height="66" rx="14" fill="none" stroke="#FF8E55" stroke-width="2"/>
  <rect x="50" y="343" width="59" height="68" rx="15" fill="#FF8B53" fill-opacity="0.08"/>
  <rect x="46" y="339" width="67" height="76" rx="18" fill="#FF8B53" fill-opacity="0.05"/>
  <text x="64" y="379" fill="#FFF4ED" font-size="17" font-family="Arial, Helvetica, sans-serif">Sim</text>
  <text x="56" y="396" fill="#F0C6B1" font-size="11" font-family="Arial, Helvetica, sans-serif">live mode</text>

  <rect x="49" y="425" width="62" height="60" rx="14" fill="url(#buttonGloss)" stroke="#0F1115" stroke-width="2" filter="url(#soft)"/>
  <text x="67" y="458" fill="#E9EDF1" font-size="16" font-family="Arial, Helvetica, sans-serif">Ref</text>
  <text x="60" y="476" fill="#9AA4AE" font-size="12" font-family="Arial, Helvetica, sans-serif">SMCP</text>

  <rect x="50" y="658" width="60" height="58" rx="14" fill="url(#buttonGloss)" stroke="#0F1115" stroke-width="2" filter="url(#soft)"/>
  <circle cx="80" cy="678" r="8" fill="#C7D2DC"/>
  <path d="M69 694C71 689 75 686 80 686C85 686 89 689 91 694V698H69V694Z" fill="#C7D2DC"/>
  <text x="69" y="708" fill="#E9EDF1" font-size="12" font-family="Arial, Helvetica, sans-serif">Me</text>

  <rect x="140" y="103" width="739" height="626" rx="24" fill="url(#steelSoft)" stroke="#6A7078" stroke-width="1.2" filter="url(#shadow)"/>
  <rect x="143" y="106" width="733" height="620" rx="22" fill="none" stroke="#8B9098" stroke-opacity="0.25"/>
  <text x="170" y="140" fill="#F1F4F7" font-size="17" font-family="Arial, Helvetica, sans-serif">Simulator Console</text>
  <text x="715" y="140" fill="#7F8791" font-size="14" font-family="Arial, Helvetica, sans-serif">Tier 2 / Distress workflow</text>

  <circle cx="160" cy="364" r="14" fill="#555B63" filter="url(#soft)"/>
  <rect x="112" y="359" width="45" height="10" rx="4" fill="url(#steel)"/>
  <rect x="108" y="356" width="6" height="16" rx="2" fill="#9A9EA4"/>
  <rect x="881" y="403" width="15" height="47" rx="3" fill="url(#steel)" stroke="#2A2F35" stroke-width="1"/>
  <circle cx="888.5" cy="425" r="1.3" fill="#20242A"/>
  <circle cx="888.5" cy="430" r="1.3" fill="#20242A"/>
  <circle cx="888.5" cy="435" r="1.3" fill="#20242A"/>
  <circle cx="903" cy="476" r="12" fill="#555B63" filter="url(#soft)"/>
  <rect x="890" y="471" width="20" height="10" rx="4" fill="url(#steel)"/>
  <rect x="910" y="472" width="23" height="8" rx="3" fill="#80858B"/>

  <rect x="173" y="158" width="676" height="459" rx="22" fill="#191D23" fill-opacity="0.45"/>
  <rect x="194" y="181" width="597" height="384" rx="24" fill="url(#steel)" stroke="#20252B" stroke-width="1.5" filter="url(#shadow)"/>
  <circle cx="214" cy="189" r="8" fill="#474D55" stroke="#2A2F35" stroke-width="1.2"/>
  <circle cx="214" cy="189" r="3.5" fill="#9EA4AB"/>
  <circle cx="773" cy="189" r="8" fill="#474D55" stroke="#2A2F35" stroke-width="1.2"/>
  <circle cx="773" cy="189" r="3.5" fill="#9EA4AB"/>
  <circle cx="214" cy="543" r="8" fill="#474D55" stroke="#2A2F35" stroke-width="1.2"/>
  <circle cx="214" cy="543" r="3.5" fill="#9EA4AB"/>
  <circle cx="773" cy="543" r="8" fill="#474D55" stroke="#2A2F35" stroke-width="1.2"/>
  <circle cx="773" cy="543" r="3.5" fill="#9EA4AB"/>

  <rect x="232" y="181" width="521" height="126" rx="19" fill="url(#screenFrame)" stroke="#525962" stroke-width="1.5" filter="url(#soft)"/>
  <rect x="353" y="200" width="315" height="86" rx="14" fill="url(#lcd)" stroke="#6E8D68"/>
  <rect x="353" y="200" width="315" height="86" rx="14" fill="url(#lcdDots)" opacity="0.7"/>
  <rect x="353" y="200" width="315" height="86" rx="14" fill="#8CDE9F" fill-opacity="0.06"/>
  <text x="388" y="234" fill="#122D17" font-size="27" font-family="Arial, Helvetica, sans-serif">CH 16 156.800</text>
  <text x="388" y="260" fill="#233C22" font-size="14" font-family="Arial, Helvetica, sans-serif">DUAL WATCH: OFF</text>
  <text x="388" y="279" fill="#233C22" font-size="14" font-family="Arial, Helvetica, sans-serif">PWR 25W SQL 04 GPS LOCK</text>
  <text x="605" y="279" fill="#233C22" font-size="13" font-family="Arial, Helvetica, sans-serif">GPS</text>
  <path d="M579 272L584 267L589 272L586 273L587 278H581L582 273L579 272Z" fill="#233C22"/>
  <rect x="370" y="208" width="18" height="18" fill="url(#lcdDots)" opacity="0.8"/>

  <circle cx="282" cy="243" r="33" fill="url(#knobOuter)" stroke="#7C8188" stroke-width="1.2"/>
  <circle cx="282" cy="243" r="23" fill="url(#knobInner)"/>
  <circle cx="282" cy="243" r="15" fill="#4A5057"/>
  <line x1="282" y1="243" x2="268" y2="223" stroke="#F6F8FA" stroke-width="2.5" stroke-linecap="round"/>
  <path d="M239 243A43 43 0 1 1 325 243" stroke="#A1A7AE" stroke-width="1.2" stroke-dasharray="1 5"/>
  <text x="259" y="299" fill="#8C9096" font-size="13" font-family="Arial, Helvetica, sans-serif">VOL</text>
  <text x="250" y="287" fill="#8C9096" font-size="11" font-family="Arial, Helvetica, sans-serif">0</text>
  <text x="300" y="287" fill="#8C9096" font-size="11" font-family="Arial, Helvetica, sans-serif">100</text>

  <circle cx="707" cy="243" r="33" fill="url(#knobOuter)" stroke="#7C8188" stroke-width="1.2"/>
  <circle cx="707" cy="243" r="23" fill="url(#knobInner)"/>
  <circle cx="707" cy="243" r="15" fill="#4A5057"/>
  <line x1="707" y1="243" x2="721" y2="221" stroke="#F6F8FA" stroke-width="2.5" stroke-linecap="round"/>
  <path d="M664 243A43 43 0 1 1 750 243" stroke="#A1A7AE" stroke-width="1.2" stroke-dasharray="1 5"/>
  <text x="693" y="299" fill="#8C9096" font-size="13" font-family="Arial, Helvetica, sans-serif">SQL</text>
  <text x="685" y="287" fill="#8C9096" font-size="11" font-family="Arial, Helvetica, sans-serif">0</text>
  <text x="728" y="287" fill="#8C9096" font-size="11" font-family="Arial, Helvetica, sans-serif">100</text>

  <g filter="url(#soft)">
    <rect x="233" y="343" width="112" height="49" rx="14" fill="url(#buttonGloss)" stroke="#12161A" stroke-width="2"/>
    <rect x="348" y="343" width="112" height="49" rx="14" fill="url(#buttonGloss)" stroke="#12161A" stroke-width="2"/>
    <rect x="464" y="343" width="112" height="49" rx="14" fill="url(#buttonGloss)" stroke="#12161A" stroke-width="2"/>
    <rect x="580" y="343" width="96" height="49" rx="14" fill="url(#buttonGloss)" stroke="#12161A" stroke-width="2"/>
    <rect x="682" y="343" width="90" height="49" rx="14" fill="url(#buttonGloss)" stroke="#12161A" stroke-width="2"/>
  </g>
  <rect x="233" y="343" width="112" height="49" rx="14" fill="none" stroke="#53677D" stroke-opacity="0.65"/>
  <rect x="348" y="343" width="112" height="49" rx="14" fill="none" stroke="#53677D" stroke-opacity="0.65"/>
  <rect x="464" y="343" width="112" height="49" rx="14" fill="none" stroke="#53677D" stroke-opacity="0.65"/>
  <rect x="580" y="343" width="96" height="49" rx="14" fill="none" stroke="#53677D" stroke-opacity="0.65"/>
  <rect x="682" y="343" width="90" height="49" rx="14" fill="none" stroke="#53677D" stroke-opacity="0.65"/>
  <path d="M255 391H323" stroke="#D38A52" stroke-width="2.2" stroke-linecap="round" stroke-opacity="0.7"/>
  <path d="M372 391H436" stroke="#D38A52" stroke-width="2.2" stroke-linecap="round" stroke-opacity="0.7"/>
  <path d="M488 391H552" stroke="#D38A52" stroke-width="2.2" stroke-linecap="round" stroke-opacity="0.7"/>
  <path d="M607 391H649" stroke="#D38A52" stroke-width="2.2" stroke-linecap="round" stroke-opacity="0.7"/>
  <path d="M706 391H748" stroke="#D38A52" stroke-width="2.2" stroke-linecap="round" stroke-opacity="0.7"/>
  <text x="266" y="374" fill="#F0F2F5" font-size="17" font-family="Arial, Helvetica, sans-serif">16 / 9</text>
  <text x="397" y="374" fill="#F0F2F5" font-size="17" font-family="Arial, Helvetica, sans-serif">DUAL</text>
  <text x="510" y="374" fill="#F0F2F5" font-size="17" font-family="Arial, Helvetica, sans-serif">H/L</text>
  <text x="616" y="374" fill="#F0F2F5" font-size="17" font-family="Arial, Helvetica, sans-serif">CH +</text>
  <text x="714" y="374" fill="#F0F2F5" font-size="17" font-family="Arial, Helvetica, sans-serif">CH -</text>

  <rect x="232" y="416" width="333" height="111" rx="17" fill="url(#screenFrame)" stroke="#454C55" stroke-width="1.2"/>
  <text x="254" y="442" fill="#C2C7CD" font-size="14" font-family="Arial, Helvetica, sans-serif">DSC CONTROLS</text>
  <rect x="244" y="455" width="165" height="40" rx="7" fill="#55595F" stroke="#8A8F95" stroke-width="1.2"/>
  <rect x="250" y="460" width="152" height="30" rx="4" fill="#7C4746"/>
  <path d="M253 460H403" stroke="#A9B0B6" stroke-width="1"/>
  <path d="M246 456V495" stroke="#34383D" stroke-width="2"/>
  <text x="259" y="482" fill="#F8E9E6" font-size="14" font-family="Arial, Helvetica, sans-serif">DISTRESS HOLD 3s</text>
  <rect x="415" y="459" width="74" height="35" rx="10" fill="url(#buttonGloss)" stroke="#12161A" stroke-width="2"/>
  <rect x="495" y="459" width="74" height="35" rx="10" fill="url(#buttonGloss)" stroke="#12161A" stroke-width="2"/>
  <text x="439" y="482" fill="#EEF2F6" font-size="14" font-family="Arial, Helvetica, sans-serif">CALL</text>
  <text x="517" y="482" fill="#EEF2F6" font-size="14" font-family="Arial, Helvetica, sans-serif">MENU</text>
  <text x="246" y="512" fill="#8F9398" font-size="11" font-family="Arial, Helvetica, sans-serif">MMSI 211239680 UTC 14:35 AUTO-SWITCH READY</text>

  <circle cx="659" cy="470" r="78" fill="url(#orangeGlow)"/>
  <circle cx="659" cy="470" r="62" fill="url(#orange)" stroke="#2D1810" stroke-width="3" filter="url(#soft)"/>
  <circle cx="659" cy="470" r="47" fill="url(#orangeCore)"/>
  <circle cx="659" cy="470" r="33" fill="#B75C27" fill-opacity="0.25"/>
  <text x="643" y="466" fill="#F9E8DB" font-size="20" font-family="Arial, Helvetica, sans-serif">PTT</text>
  <text x="615" y="486" fill="#F7D7C4" font-size="12" font-family="Arial, Helvetica, sans-serif">PRESS AND HOLD</text>

  <rect x="172" y="586" width="674" height="145" rx="22" fill="url(#panelShell)" stroke="#32373D" stroke-width="1.5" filter="url(#soft)"/>
  <text x="197" y="622" fill="#E8ECEF" font-size="16" font-family="Arial, Helvetica, sans-serif">Live Feedback</text>
  <rect x="199" y="636" width="110" height="31" rx="15.5" fill="url(#buttonBlue)" stroke="#416489" stroke-width="1.2"/>
  <rect x="318" y="636" width="94" height="31" rx="15.5" fill="url(#buttonBlue)" stroke="#416489" stroke-width="1.2"/>
  <rect x="421" y="636" width="88" height="31" rx="15.5" fill="url(#buttonBlue)" stroke="#416489" stroke-width="1.2"/>
  <rect x="518" y="636" width="88" height="31" rx="15.5" fill="url(#buttonBlue)" stroke="#416489" stroke-width="1.2"/>
  <text x="213" y="655" fill="#E6EDF3" font-size="13" font-family="Arial, Helvetica, sans-serif">Required fields</text>
  <text x="338" y="655" fill="#E6EDF3" font-size="13" font-family="Arial, Helvetica, sans-serif">Sequence</text>
  <text x="444" y="655" fill="#E6EDF3" font-size="13" font-family="Arial, Helvetica, sans-serif">Channel</text>
  <text x="545" y="655" fill="#E6EDF3" font-size="13" font-family="Arial, Helvetica, sans-serif">Clarity</text>
  <text x="198" y="690" fill="#D8DDE2" font-size="17" font-family="Arial, Helvetica, sans-serif">Prompting tip: after the MAYDAY call, be ready to restate position and persons on board immediately.</text>

  <rect x="897" y="103" width="367" height="301" rx="23" fill="#14171C" stroke="#6D7279" stroke-width="1.2" filter="url(#shadow)"/>
  <rect x="907" y="114" width="347" height="281" rx="20" fill="#111317" stroke="#030406" stroke-width="1.2"/>
  <path d="M1122 114H1254V237L1210 114H1122Z" fill="#F4F6F9" fill-opacity="0.08"/>
  <circle cx="916" cy="228" r="1.5" fill="#242A31"/>
  <circle cx="916" cy="246" r="1.5" fill="#242A31"/>
  <circle cx="916" cy="264" r="1.5" fill="#242A31"/>

  <text x="930" y="155" fill="#E9EDF1" font-size="17" font-family="Arial, Helvetica, sans-serif">Scenario Briefing</text>
  <rect x="932" y="163" width="94" height="28" rx="14" fill="#343A42" stroke="#545B63" stroke-width="1"/>
  <text x="956" y="181" fill="#E7EEF5" font-size="12" font-family="Arial, Helvetica, sans-serif">DISTRESS</text>
  <text x="930" y="228" fill="#F1F4F7" font-size="31" font-family="Arial, Helvetica, sans-serif">Fire on Board</text>
  <text x="930" y="258" fill="#B2BAC3" font-size="15" font-family="Arial, Helvetica, sans-serif">M/V BLUE DUCK / Callsign 5BCD2</text>
  <text x="930" y="285" fill="#DCE3EA" font-size="14" font-family="Arial, Helvetica, sans-serif">Position 36 08 N / 005 21 W</text>
  <text x="930" y="312" fill="#DCE3EA" font-size="14" font-family="Arial, Helvetica, sans-serif">Persons on board 12</text>
  <text x="930" y="348" fill="#8B949E" font-size="13" font-family="Arial, Helvetica, sans-serif">Task</text>
  <text x="930" y="377" fill="#F1F4F7" font-size="17" font-family="Arial, Helvetica, sans-serif">Send a DSC distress alert, then deliver a complete</text>
  <text x="930" y="398" fill="#F1F4F7" font-size="17" font-family="Arial, Helvetica, sans-serif">voice MAYDAY on Ch 16.</text>
  <rect x="930" y="365" width="176" height="33" rx="16.5" fill="#3A4048" stroke="#626971" stroke-width="1"/>
  <text x="975" y="386" fill="#F0F4F8" font-size="13" font-family="Arial, Helvetica, sans-serif">SCRIPT REFERENCE</text>

  <rect x="897" y="421" width="367" height="326" rx="23" fill="#1A1C22" stroke="#343A42" stroke-width="1.2" filter="url(#shadow)"/>
  <text x="930" y="458" fill="#E9EDF1" font-size="17" font-family="Arial, Helvetica, sans-serif">Transcript and Scoring</text>

  <path d="M930 496C930 487.716 936.716 481 945 481H1220C1228.28 481 1235 487.716 1235 496V523L1241 539H945C936.716 539 930 532.284 930 524V496Z" fill="#21314A" stroke="#365B85" stroke-width="1.4"/>
  <text x="951" y="501" fill="#7ED38E" font-size="11" font-family="Arial, Helvetica, sans-serif">YOU</text>
  <text x="951" y="522" fill="#EAF1F7" font-size="13" font-family="Arial, Helvetica, sans-serif">MAYDAY MAYDAY MAYDAY, THIS IS BLUE DUCK...</text>

  <path d="M952 568C952 559.716 958.716 553 967 553H1220C1228.28 553 1235 559.716 1235 568V596L1243 612H967C958.716 612 952 605.284 952 597V568Z" fill="#654B32" stroke="#A28058" stroke-width="1.4"/>
  <text x="971" y="575" fill="#E2C39B" font-size="11" font-family="Arial, Helvetica, sans-serif">MRCC</text>
  <text x="971" y="596" fill="#FFF4E8" font-size="13" font-family="Arial, Helvetica, sans-serif">RECEIVED MAYDAY. CONFIRM PERSONS ON BOARD. OVER.</text>

  <rect x="930" y="631" width="135" height="75" rx="16" fill="#21242B" stroke="#383E47" stroke-width="1.2"/>
  <path d="M944 691C944 665 961 647 992 647C1023 647 1040 665 1040 691" stroke="#68B2E7" stroke-width="6" stroke-linecap="round"/>
  <text x="975" y="693" fill="#F7F8FA" font-size="24" font-family="Arial, Helvetica, sans-serif">82%</text>

  <rect x="1077" y="631" width="161" height="75" rx="16" fill="#21242B" stroke="#383E47" stroke-width="1.2"/>
  <text x="1104" y="662" fill="#B8C0C9" font-size="13" font-family="Arial, Helvetica, sans-serif">Missing field:</text>
  <text x="1102" y="694" fill="#F7F8FA" font-size="24" font-family="Arial, Helvetica, sans-serif">POB count</text>

  <path d="M1253 692L1262 707L1280 709L1267 722L1270 741L1253 732L1236 741L1239 722L1226 709L1244 707L1253 692Z" fill="#DFE4EA"/>
</svg>
