<svg width="1440" height="960" viewBox="0 0 1440 960" fill="none" xmlns="http://www.w3.org/2000/svg">
  <defs>
    <linearGradient id="bg" x1="0" y1="0" x2="1440" y2="960" gradientUnits="userSpaceOnUse">
      <stop stop-color="#081321"/>
      <stop offset="1" stop-color="#10253B"/>
    </linearGradient>
    <linearGradient id="panel" x1="0" y1="0" x2="1" y2="1">
      <stop stop-color="#0F1C2B"/>
      <stop offset="1" stop-color="#16283E"/>
    </linearGradient>
    <linearGradient id="accent" x1="0" y1="0" x2="1" y2="1">
      <stop stop-color="#FF8B4A"/>
      <stop offset="1" stop-color="#FF5E2B"/>
    </linearGradient>
    <linearGradient id="lcd" x1="0" y1="0" x2="0" y2="1">
      <stop stop-color="#C8FFD9"/>
      <stop offset="1" stop-color="#80D39A"/>
    </linearGradient>
    <filter id="shadow" x="-20%" y="-20%" width="140%" height="140%">
      <feDropShadow dx="0" dy="18" stdDeviation="24" flood-color="#020710" flood-opacity="0.45"/>
    </filter>
    <pattern id="grid" width="48" height="48" patternUnits="userSpaceOnUse">
      <path d="M48 0H0V48" stroke="#1E3650" stroke-opacity="0.35"/>
    </pattern>
  </defs>

  <rect width="1440" height="960" fill="url(#bg)"/>
  <rect width="1440" height="960" fill="url(#grid)"/>
  <circle cx="1250" cy="130" r="220" fill="#0F3552" fill-opacity="0.22"/>
  <circle cx="1170" cy="860" r="260" fill="#0C2C45" fill-opacity="0.18"/>

  <rect x="28" y="28" width="1384" height="904" rx="28" fill="#0B1726" stroke="#203650" stroke-width="1.5"/>
  <rect x="28" y="28" width="1384" height="78" rx="28" fill="#0B1726"/>
  <line x1="28" y1="106" x2="1412" y2="106" stroke="#203650"/>

  <text x="64" y="74" fill="#F4F8FB" font-size="28" font-family="Arial, Helvetica, sans-serif" font-weight="700">GMDSS Simulator</text>
  <text x="302" y="74" fill="#93A9BF" font-size="16" font-family="Arial, Helvetica, sans-serif">Radio-first training for ROC students</text>

  <rect x="1056" y="49" width="134" height="36" rx="18" fill="#13304A" stroke="#2E5372"/>
  <circle cx="1081" cy="67" r="6" fill="#7CD992"/>
  <text x="1095" y="73" fill="#D8E8F5" font-size="15" font-family="Arial, Helvetica, sans-serif">Online</text>

  <rect x="1206" y="49" width="176" height="36" rx="18" fill="#1B2635" stroke="#364B63"/>
  <text x="1231" y="73" fill="#C4D4E3" font-size="15" font-family="Arial, Helvetica, sans-serif">Cohort: ROC 04/26</text>

  <rect x="48" y="126" width="96" height="786" rx="24" fill="#0E1B2C" stroke="#203650"/>
  <rect x="66" y="152" width="60" height="60" rx="18" fill="url(#accent)"/>
  <text x="82" y="191" fill="#FFFFFF" font-size="28" font-family="Arial, Helvetica, sans-serif" font-weight="700">G</text>

  <rect x="60" y="244" width="72" height="74" rx="18" fill="#132539" stroke="#29425F"/>
  <text x="79" y="276" fill="#F4F8FB" font-size="14" font-family="Arial, Helvetica, sans-serif" font-weight="700">LEARN</text>
  <text x="82" y="297" fill="#93A9BF" font-size="11" font-family="Arial, Helvetica, sans-serif">12/18</text>

  <rect x="60" y="334" width="72" height="74" rx="18" fill="#132539" stroke="#29425F"/>
  <text x="84" y="366" fill="#F4F8FB" font-size="14" font-family="Arial, Helvetica, sans-serif" font-weight="700">DRILL</text>
  <text x="82" y="387" fill="#93A9BF" font-size="11" font-family="Arial, Helvetica, sans-serif">8/10</text>

  <rect x="60" y="424" width="72" height="84" rx="18" fill="url(#accent)"/>
  <text x="89" y="459" fill="#FFFFFF" font-size="15" font-family="Arial, Helvetica, sans-serif" font-weight="700">SIM</text>
  <text x="80" y="481" fill="#FFE8DD" font-size="11" font-family="Arial, Helvetica, sans-serif">LIVE</text>

  <rect x="60" y="528" width="72" height="74" rx="18" fill="#132539" stroke="#29425F"/>
  <text x="91" y="560" fill="#F4F8FB" font-size="14" font-family="Arial, Helvetica, sans-serif" font-weight="700">REF</text>
  <text x="79" y="581" fill="#93A9BF" font-size="11" font-family="Arial, Helvetica, sans-serif">SMCP</text>

  <rect x="60" y="822" width="72" height="72" rx="18" fill="#132539" stroke="#29425F"/>
  <text x="85" y="866" fill="#F4F8FB" font-size="14" font-family="Arial, Helvetica, sans-serif" font-weight="700">ME</text>

  <rect x="170" y="126" width="776" height="786" rx="28" fill="url(#panel)" stroke="#213A55" filter="url(#shadow)"/>
  <text x="208" y="176" fill="#F3F8FC" font-size="17" font-family="Arial, Helvetica, sans-serif" font-weight="700">Simulator Console</text>
  <text x="760" y="176" fill="#8EA8BF" font-size="14" font-family="Arial, Helvetica, sans-serif">Scenario 2.1 · Distress Workflow</text>

  <rect x="208" y="202" width="700" height="496" rx="34" fill="#2A2F36" stroke="#4B5866" stroke-width="2"/>
  <rect x="240" y="234" width="636" height="150" rx="22" fill="#1C232B" stroke="#5A6876"/>

  <rect x="404" y="258" width="308" height="102" rx="16" fill="url(#lcd)" stroke="#BDE7CA"/>
  <text x="438" y="298" fill="#0E4021" font-size="34" font-family="Courier New, monospace" font-weight="700">CH 16    156.800</text>
  <text x="438" y="326" fill="#1B5C33" font-size="17" font-family="Courier New, monospace">DUAL WATCH: OFF</text>
  <text x="438" y="348" fill="#1B5C33" font-size="17" font-family="Courier New, monospace">PWR 25W   SQL 04</text>

  <circle cx="316" cy="306" r="42" fill="#161D25" stroke="#73808D"/>
  <circle cx="316" cy="306" r="27" fill="#11171E" stroke="#A4B0BB"/>
  <line x1="316" y1="306" x2="300" y2="282" stroke="#E7EEF4" stroke-width="4" stroke-linecap="round"/>
  <text x="292" y="367" fill="#CAD7E3" font-size="13" font-family="Arial, Helvetica, sans-serif">VOL</text>

  <circle cx="796" cy="306" r="42" fill="#161D25" stroke="#73808D"/>
  <circle cx="796" cy="306" r="27" fill="#11171E" stroke="#A4B0BB"/>
  <line x1="796" y1="306" x2="815" y2="282" stroke="#E7EEF4" stroke-width="4" stroke-linecap="round"/>
  <text x="772" y="367" fill="#CAD7E3" font-size="13" font-family="Arial, Helvetica, sans-serif">SQL</text>

  <rect x="270" y="430" width="136" height="58" rx="18" fill="#152333" stroke="#425A76"/>
  <text x="309" y="466" fill="#E8F1F8" font-size="22" font-family="Arial, Helvetica, sans-serif" font-weight="700">16 / 9</text>

  <rect x="426" y="430" width="136" height="58" rx="18" fill="#152333" stroke="#425A76"/>
  <text x="462" y="466" fill="#E8F1F8" font-size="22" font-family="Arial, Helvetica, sans-serif" font-weight="700">DUAL</text>

  <rect x="582" y="430" width="136" height="58" rx="18" fill="#152333" stroke="#425A76"/>
  <text x="630" y="466" fill="#E8F1F8" font-size="22" font-family="Arial, Helvetica, sans-serif" font-weight="700">H/L</text>

  <rect x="738" y="430" width="106" height="58" rx="18" fill="#152333" stroke="#425A76"/>
  <text x="767" y="466" fill="#E8F1F8" font-size="22" font-family="Arial, Helvetica, sans-serif" font-weight="700">CH +</text>

  <rect x="738" y="500" width="106" height="58" rx="18" fill="#152333" stroke="#425A76"/>
  <text x="767" y="536" fill="#E8F1F8" font-size="22" font-family="Arial, Helvetica, sans-serif" font-weight="700">CH -</text>

  <rect x="270" y="520" width="422" height="124" rx="24" fill="#111B28" stroke="#324A66"/>
  <text x="300" y="555" fill="#C6D5E3" font-size="15" font-family="Arial, Helvetica, sans-serif" font-weight="700">DSC CONTROLS</text>
  <rect x="300" y="573" width="168" height="42" rx="21" fill="#7E1620" stroke="#FF9BA2"/>
  <text x="326" y="599" fill="#FFFFFF" font-size="17" font-family="Arial, Helvetica, sans-serif" font-weight="700">DISTRESS HOLD 3s</text>
  <rect x="486" y="573" width="86" height="42" rx="14" fill="#18283A" stroke="#425B76"/>
  <rect x="584" y="573" width="86" height="42" rx="14" fill="#18283A" stroke="#425B76"/>
  <text x="511" y="599" fill="#E6EFF7" font-size="15" font-family="Arial, Helvetica, sans-serif">CALL</text>
  <text x="604" y="599" fill="#E6EFF7" font-size="15" font-family="Arial, Helvetica, sans-serif">MENU</text>
  <text x="302" y="629" fill="#8FABC2" font-size="13" font-family="Courier New, monospace">MMSI 211239680   UTC 14:35   GPS LOCK</text>

  <circle cx="804" cy="594" r="72" fill="url(#accent)" filter="url(#shadow)"/>
  <circle cx="804" cy="594" r="52" fill="#FF6E38"/>
  <text x="782" y="587" fill="#FFFFFF" font-size="19" font-family="Arial, Helvetica, sans-serif" font-weight="700">PTT</text>
  <text x="760" y="611" fill="#FFE7DD" font-size="14" font-family="Arial, Helvetica, sans-serif">HOLD TO TALK</text>

  <rect x="208" y="728" width="700" height="146" rx="24" fill="#0F1B29" stroke="#24415E"/>
  <text x="236" y="763" fill="#F3F8FC" font-size="16" font-family="Arial, Helvetica, sans-serif" font-weight="700">Session Feedback</text>
  <rect x="236" y="785" width="132" height="34" rx="17" fill="#17334D">
  </rect>
  <text x="259" y="807" fill="#D8E8F5" font-size="14" font-family="Arial, Helvetica, sans-serif">Pronunciation</text>
  <rect x="378" y="785" width="118" height="34" rx="17" fill="#17334D"/>
  <text x="404" y="807" fill="#D8E8F5" font-size="14" font-family="Arial, Helvetica, sans-serif">Structure</text>
  <rect x="506" y="785" width="106" height="34" rx="17" fill="#17334D"/>
  <text x="532" y="807" fill="#D8E8F5" font-size="14" font-family="Arial, Helvetica, sans-serif">Channel</text>

  <text x="236" y="846" fill="#AFC3D5" font-size="18" font-family="Arial, Helvetica, sans-serif">Speak clearly, keep the MAYDAY structure tight, then move to requested follow-up details.</text>

  <rect x="970" y="126" width="422" height="380" rx="28" fill="#101D2C" stroke="#213A55" filter="url(#shadow)"/>
  <text x="1002" y="172" fill="#F3F8FC" font-size="17" font-family="Arial, Helvetica, sans-serif" font-weight="700">Scenario Briefing</text>
  <rect x="1004" y="194" width="120" height="30" rx="15" fill="#18324D"/>
  <text x="1032" y="214" fill="#D9E7F5" font-size="13" font-family="Arial, Helvetica, sans-serif">DISTRESS</text>
  <text x="1004" y="254" fill="#F7FBFE" font-size="32" font-family="Arial, Helvetica, sans-serif" font-weight="700">Fire on Board</text>
  <text x="1004" y="292" fill="#A9C0D3" font-size="18" font-family="Arial, Helvetica, sans-serif">M/V BLUE DUCK · Call sign 5BCD2</text>
  <text x="1004" y="330" fill="#DCE7F0" font-size="17" font-family="Arial, Helvetica, sans-serif">Position: 36°08'N 005°21'W</text>
  <text x="1004" y="359" fill="#DCE7F0" font-size="17" font-family="Arial, Helvetica, sans-serif">Persons on board: 12</text>
  <text x="1004" y="405" fill="#A9C0D3" font-size="16" font-family="Arial, Helvetica, sans-serif">Task</text>
  <text x="1004" y="434" fill="#F1F7FB" font-size="19" font-family="Arial, Helvetica, sans-serif">Send DSC distress alert, then deliver a complete voice MAYDAY on Channel 16.</text>
  <rect x="1004" y="455" width="164" height="40" rx="20" fill="#18324D" stroke="#345C7B"/>
  <text x="1046" y="480" fill="#E4F0F8" font-size="15" font-family="Arial, Helvetica, sans-serif">SCRIPT REFERENCE</text>

  <rect x="970" y="530" width="422" height="382" rx="28" fill="#101D2C" stroke="#213A55" filter="url(#shadow)"/>
  <text x="1002" y="576" fill="#F3F8FC" font-size="17" font-family="Arial, Helvetica, sans-serif" font-weight="700">Transcript and Scoring</text>

  <rect x="1004" y="600" width="354" height="72" rx="18" fill="#15283B" stroke="#2A4A67"/>
  <text x="1028" y="628" fill="#86FFB3" font-size="13" font-family="Courier New, monospace">YOU</text>
  <text x="1028" y="650" fill="#EDF5FB" font-size="16" font-family="Arial, Helvetica, sans-serif">MAYDAY MAYDAY MAYDAY, THIS IS BLUE DUCK...</text>

  <rect x="1038" y="688" width="320" height="72" rx="18" fill="#281E18" stroke="#7C512E"/>
  <text x="1062" y="716" fill="#FFB782" font-size="13" font-family="Courier New, monospace">MRCC</text>
  <text x="1062" y="738" fill="#FFF2EA" font-size="16" font-family="Arial, Helvetica, sans-serif">RECEIVED MAYDAY. Confirm persons on board. OVER.</text>

  <rect x="1004" y="786" width="160" height="86" rx="20" fill="#142B40" stroke="#2E526F"/>
  <text x="1034" y="822" fill="#97E3AE" font-size="14" font-family="Arial, Helvetica, sans-serif">OVERALL SCORE</text>
  <text x="1050" y="858" fill="#FFFFFF" font-size="38" font-family="Arial, Helvetica, sans-serif" font-weight="700">82%</text>

  <rect x="1180" y="786" width="178" height="86" rx="20" fill="#142B40" stroke="#2E526F"/>
  <text x="1208" y="822" fill="#E7F1F8" font-size="15" font-family="Arial, Helvetica, sans-serif">Required fields</text>
  <text x="1242" y="858" fill="#FFFFFF" font-size="30" font-family="Arial, Helvetica, sans-serif" font-weight="700">9/10</text>
</svg>
