<svg width="430" height="932" viewBox="0 0 430 932" fill="none" xmlns="http://www.w3.org/2000/svg">
  <rect width="430" height="932" fill="#F4F5F7"/>
  <rect x="11" y="10" width="408" height="912" rx="28" fill="white" stroke="#A0A7B4" stroke-width="2"/>

  <rect x="11" y="10" width="408" height="72" rx="28" fill="#ECEFF3" stroke="#A0A7B4" stroke-width="2"/>
  <text x="34" y="54" fill="#222222" font-size="24" font-family="Arial, Helvetica, sans-serif" font-weight="700">Simulator</text>
  <rect x="302" y="30" width="88" height="30" rx="15" fill="white" stroke="#7C8798" stroke-width="2"/>
  <text x="327" y="49" fill="#222222" font-size="14" font-family="Arial, Helvetica, sans-serif">Online</text>

  <rect x="30" y="100" width="370" height="132" rx="16" fill="#F8F9FB" stroke="#A0A7B4" stroke-width="2"/>
  <text x="52" y="136" fill="#222222" font-size="18" font-family="Arial, Helvetica, sans-serif" font-weight="700">Scenario Brief</text>
  <text x="52" y="168" fill="#222222" font-size="22" font-family="Arial, Helvetica, sans-serif" font-weight="700">Fire on Board</text>
  <text x="52" y="198" fill="#222222" font-size="16" font-family="Arial, Helvetica, sans-serif">Send DSC distress, then MAYDAY on Ch 16</text>

  <rect x="30" y="252" width="370" height="430" rx="20" fill="#F8F9FB" stroke="#A0A7B4" stroke-width="2"/>
  <text x="52" y="290" fill="#222222" font-size="20" font-family="Arial, Helvetica, sans-serif" font-weight="700">Radio Panel</text>

  <rect x="54" y="312" width="322" height="90" rx="14" fill="white" stroke="#7C8798" stroke-width="2"/>
  <text x="141" y="352" fill="#222222" font-size="30" font-family="Courier New, monospace">CH 16</text>
  <text x="119" y="382" fill="#222222" font-size="16" font-family="Courier New, monospace">156.800  SQL 04</text>

  <rect x="54" y="422" width="72" height="52" rx="12" fill="white" stroke="#7C8798" stroke-width="2"/>
  <text x="72" y="454" fill="#222222" font-size="18" font-family="Arial, Helvetica, sans-serif">16/9</text>
  <rect x="140" y="422" width="72" height="52" rx="12" fill="white" stroke="#7C8798" stroke-width="2"/>
  <text x="160" y="454" fill="#222222" font-size="18" font-family="Arial, Helvetica, sans-serif">Dual</text>
  <rect x="226" y="422" width="60" height="52" rx="12" fill="white" stroke="#7C8798" stroke-width="2"/>
  <text x="246" y="454" fill="#222222" font-size="18" font-family="Arial, Helvetica, sans-serif">H/L</text>
  <rect x="300" y="422" width="76" height="52" rx="12" fill="white" stroke="#7C8798" stroke-width="2"/>
  <text x="320" y="454" fill="#222222" font-size="18" font-family="Arial, Helvetica, sans-serif">Ch+</text>

  <rect x="54" y="494" width="216" height="88" rx="14" fill="white" stroke="#7C8798" stroke-width="2"/>
  <text x="78" y="530" fill="#222222" font-size="18" font-family="Arial, Helvetica, sans-serif" font-weight="700">DSC Controls</text>
  <rect x="78" y="542" width="112" height="30" rx="10" fill="#ECEFF3" stroke="#222222" stroke-width="3"/>
  <text x="101" y="562" fill="#222222" font-size="14" font-family="Arial, Helvetica, sans-serif" font-weight="700">DISTRESS</text>

  <circle cx="326" cy="538" r="52" fill="#ECEFF3" stroke="#222222" stroke-width="3"/>
  <text x="309" y="534" fill="#222222" font-size="18" font-family="Arial, Helvetica, sans-serif" font-weight="700">PTT</text>
  <text x="294" y="556" fill="#444444" font-size="11" font-family="Arial, Helvetica, sans-serif">Hold</text>

  <rect x="54" y="602" width="322" height="54" rx="14" fill="white" stroke="#7C8798" stroke-width="2"/>
  <text x="78" y="636" fill="#222222" font-size="18" font-family="Arial, Helvetica, sans-serif">Status  TX off  RX off</text>

  <rect x="30" y="702" width="370" height="144" rx="16" fill="#F8F9FB" stroke="#A0A7B4" stroke-width="2"/>
  <text x="52" y="738" fill="#222222" font-size="20" font-family="Arial, Helvetica, sans-serif" font-weight="700">Transcript</text>
  <rect x="52" y="756" width="326" height="68" rx="12" fill="white" stroke="#7C8798" stroke-width="2"/>
  <text x="72" y="796" fill="#222222" font-size="16" font-family="Arial, Helvetica, sans-serif">YOU: MAYDAY MAYDAY MAYDAY...</text>

  <rect x="30" y="862" width="370" height="40" rx="20" fill="#ECEFF3" stroke="#A0A7B4" stroke-width="2"/>
  <text x="64" y="887" fill="#222222" font-size="16" font-family="Arial, Helvetica, sans-serif">Learn</text>
  <text x="145" y="887" fill="#222222" font-size="16" font-family="Arial, Helvetica, sans-serif">Drill</text>
  <text x="227" y="887" fill="#222222" font-size="16" font-family="Arial, Helvetica, sans-serif" font-weight="700">Sim</text>
  <text x="305" y="887" fill="#222222" font-size="16" font-family="Arial, Helvetica, sans-serif">Ref</text>
</svg>
